<svg version="1.1" id="Layer_1" xmlns="http://www.w3.org/2000/svg" xmlns:xlink="http://www.w3.org/1999/xlink" x="0px" y="0px"
	 width="100%" viewBox="0 0 1024 1024" enable-background="new 0 0 1024 1024" xml:space="preserve">
<path fill="#FFFFFF" opacity="1.000000" stroke="none" 
	d="
M679.000000,1025.000000 
	C452.666656,1025.000000 226.833328,1025.000000 1.000000,1025.000000 
	C1.000000,683.666687 1.000000,342.333344 1.000000,1.000000 
	C342.333344,1.000000 683.666687,1.000000 1025.000000,1.000000 
	C1025.000000,342.333344 1025.000000,683.666687 1025.000000,1025.000000 
	C909.833313,1025.000000 794.666687,1025.000000 679.000000,1025.000000 
M367.167236,464.397614 
	C374.600830,472.082275 380.019165,465.470551 386.146515,461.013916 
	C386.146515,501.413666 386.153229,541.063293 386.116791,580.712952 
	C386.115601,582.010620 385.842468,583.367249 385.407684,584.594299 
	C384.092804,588.305176 385.240784,591.686768 388.284271,593.316162 
	C391.273743,594.916504 395.047424,595.732910 398.476379,595.731262 
	C472.455933,595.694641 546.436279,595.284546 620.413696,595.597046 
	C629.510803,595.635498 634.071350,591.058899 633.997681,581.949829 
	C633.686646,543.463013 633.939026,504.971710 633.984985,466.482025 
	C633.987000,464.797943 633.985291,463.113831 633.985291,460.610870 
	C641.196045,467.909546 646.553833,469.652466 651.097412,465.885162 
	C659.274841,459.104767 667.630920,452.535767 676.010986,446.005035 
	C683.653015,440.049469 691.271301,434.042969 699.181030,428.456757 
	C708.507874,421.869751 710.577637,413.625366 704.986938,403.457977 
	C703.475342,400.708832 702.441467,397.688599 700.846741,394.995056 
	C695.970215,386.758484 691.363464,378.309692 685.823608,370.533447 
	C680.561401,363.147064 674.489319,356.289795 668.348083,349.589752 
	C660.985901,341.557678 653.671692,333.357697 645.431213,326.285522 
	C634.732361,317.103485 623.087341,309.098724 609.684265,304.010864 
	C598.129883,299.624756 586.821777,296.343292 575.911377,305.621460 
	C574.680115,306.668549 572.172668,307.529053 570.881531,306.987457 
	C558.551819,301.815033 546.349609,296.337372 534.126343,290.912445 
	C529.311035,288.775330 522.693054,287.760620 520.243774,284.034271 
	C517.642822,280.077209 519.102295,273.501495 518.611694,268.085327 
	C518.373840,265.459747 519.335327,264.658936 521.850891,263.665466 
	C527.644165,261.377625 533.750671,259.059692 538.559082,255.268677 
	C549.333862,246.773651 552.947571,235.095001 552.345215,221.376877 
	C551.774719,208.385544 545.752625,198.516037 536.409729,190.808411 
	C523.571716,180.217377 504.707031,178.549438 490.548157,187.628571 
	C476.882172,196.391663 470.775116,211.148972 472.101898,225.965637 
	C472.356506,228.809189 474.260162,232.997498 476.480286,233.892075 
	C483.073669,236.548828 488.382751,234.879517 487.554138,224.270126 
	C486.348969,208.840057 498.811584,195.593781 514.489929,198.405930 
	C526.424133,200.546524 532.170349,206.206314 535.833862,218.475510 
	C538.706238,228.094879 535.088440,236.113663 528.129456,243.049713 
	C523.655884,247.508575 518.237244,247.814209 512.561584,247.966965 
	C505.432404,248.158829 501.338531,252.589966 501.349182,259.731293 
	C501.356110,264.391052 500.970978,269.056213 501.097595,273.709778 
	C501.269592,280.028381 500.941925,284.581818 493.062042,287.426605 
	C479.578461,292.294464 466.940094,299.481598 453.867126,305.522461 
	C450.184326,307.224274 446.266510,308.276184 442.703674,304.842407 
	C437.103271,299.444824 430.044525,298.933014 423.064270,300.130371 
	C411.359436,302.138123 400.550781,307.143188 391.024414,313.922943 
	C381.162537,320.941498 371.752930,328.863800 363.286987,337.508667 
	C352.407471,348.618134 341.758850,360.190033 332.708679,372.782959 
	C324.897644,383.651733 319.315277,396.150696 313.043427,408.084381 
	C310.174927,413.542389 311.376068,419.219025 315.808411,423.331238 
	C319.761658,426.998901 323.877686,430.511658 328.111084,433.852997 
	C340.892914,443.941406 353.766876,453.913086 367.167236,464.397614 
M946.500000,828.092041 
	C958.164551,828.064514 969.829468,828.083679 981.493530,827.993652 
	C989.815125,827.929504 996.905518,825.474060 1002.013611,818.231262 
	C1005.998169,812.581543 1006.750916,803.840393 1003.165710,797.986450 
	C997.965088,789.494995 990.330322,786.089417 980.549194,786.121460 
	C898.403015,786.390564 816.256531,786.563171 734.110107,786.743469 
	C534.309326,787.182007 334.508575,787.613831 134.707809,788.035400 
	C107.045540,788.093750 79.382812,788.164001 51.720886,788.064392 
	C36.361843,788.009094 26.773855,797.831787 26.975035,809.962585 
	C27.131367,819.389282 37.371677,830.299683 51.659420,830.235107 
	C172.635590,829.688293 293.613434,829.513977 414.590851,829.246094 
	C591.560547,828.854248 768.530273,828.477417 946.500000,828.092041 
M874.909180,681.341919 
	C876.075867,674.513062 877.242554,667.684265 878.498474,660.333008 
	C874.469177,660.333008 870.483704,660.665222 866.579834,660.243225 
	C862.339294,659.784729 860.790771,661.444763 859.975159,665.456604 
	C857.233398,678.943359 854.060974,692.342041 851.200562,705.805603 
	C850.013062,711.395081 849.197815,717.063599 848.213318,722.696167 
	C843.674377,713.315552 840.375732,703.836853 836.994507,694.387756 
	C833.204407,683.796021 829.421875,673.199463 825.386902,662.700745 
	C824.957764,661.584229 822.890076,660.508362 821.532227,660.441956 
	C816.223816,660.182312 810.895264,660.335876 805.322388,660.335876 
	C804.838745,662.115906 804.337646,663.677490 803.992615,665.272827 
	C799.366089,686.662842 794.798889,708.065735 790.130737,729.446655 
	C788.516541,736.839661 786.664795,744.180786 784.879028,751.725525 
	C791.361511,751.725525 797.285889,751.725525 803.144226,751.725525 
	C807.687439,730.349060 812.171509,709.250732 816.903442,686.986389 
	C825.112671,709.611633 832.797302,730.791199 840.411194,751.775757 
	C847.087097,751.775757 853.210754,751.775757 859.450012,751.775757 
	C864.540527,728.435608 869.588562,705.290344 874.909180,681.341919 
M460.637665,745.126587 
	C461.607788,747.623474 460.189178,751.739258 464.618073,751.938477 
	C470.232697,752.191040 475.867310,751.999573 481.778778,751.999573 
	C488.283264,721.307861 494.688354,691.085144 501.205505,660.333557 
	C496.082214,660.333557 491.912842,660.603516 487.796478,660.252380 
	C484.177765,659.943726 482.754944,661.388000 482.129456,664.753479 
	C480.494537,673.550720 478.600922,682.299561 476.866150,691.078674 
	C475.840179,696.270630 475.046509,701.511047 473.916931,706.679138 
	C472.748077,712.027100 471.299500,717.313843 469.736511,723.575745 
	C468.613068,721.176453 467.858826,719.876282 467.373962,718.482422 
	C462.123962,703.390320 456.966553,688.265869 451.665161,673.192017 
	C450.156464,668.902222 449.376587,662.917297 446.251038,661.015259 
	C442.699799,658.854248 436.874451,660.638184 432.072998,660.259399 
	C428.112915,659.946899 426.676819,661.456177 425.887451,665.281433 
	C421.466095,686.706909 416.733734,708.067932 412.164062,729.463074 
	C410.595306,736.807983 409.189545,744.187744 407.683380,751.680542 
	C414.151825,751.680542 419.735016,751.680542 425.371796,751.680542 
	C429.896637,730.289307 434.359100,709.192871 439.032257,687.100464 
	C446.423920,707.016479 453.360229,725.705505 460.637665,745.126587 
M356.032349,661.716553 
	C348.676727,663.241028 343.535919,668.377808 338.547607,673.269043 
	C327.810242,683.797485 323.837402,697.648071 321.228424,711.923401 
	C319.476257,721.510559 320.394714,731.070068 325.347076,739.449646 
	C329.826752,747.029419 336.230499,753.161011 345.990356,752.974915 
	C355.538727,752.792725 365.482239,753.523682 374.503204,751.083984 
	C383.466583,748.659851 390.911560,742.388855 396.950104,734.482300 
	C408.557861,719.283691 412.657776,702.326660 410.943756,683.721558 
	C410.132355,674.914551 405.864807,667.105713 398.398834,662.817017 
	C385.102905,655.179443 370.839294,655.460083 356.032349,661.716553 
M499.694183,752.006348 
	C511.358826,751.988403 523.039246,752.347778 534.684204,751.859375 
	C550.112122,751.212280 562.085571,743.491089 570.021423,730.729004 
	C574.731201,723.154968 577.853394,714.395081 580.522522,705.805725 
	C583.293884,696.887512 584.406128,687.531860 581.039062,678.298279 
	C578.217163,670.559570 573.804749,663.144958 565.359558,662.280884 
	C548.203491,660.525391 530.882812,660.378845 513.228333,659.550354 
	C510.565186,672.544861 508.173248,684.551453 505.632172,696.526367 
	C502.740509,710.153442 499.749573,723.759705 496.730347,737.359192 
	C495.671631,742.127869 494.401367,746.849609 493.125305,752.006348 
	C495.454620,752.006348 497.107117,752.006348 499.694183,752.006348 
M911.500183,660.334412 
	C906.167908,660.334412 900.815735,660.616882 895.509949,660.242065 
	C891.491638,659.958191 889.899658,661.520569 889.218567,665.278870 
	C886.824707,678.488098 884.370178,691.689941 881.664246,704.838013 
	C878.924133,718.152161 875.864197,731.400574 872.929565,744.674500 
	C872.415466,746.999756 871.829285,749.309021 871.214661,751.884277 
	C885.995483,751.884277 900.199585,752.612061 914.272400,751.568848 
	C921.037354,751.067383 928.026306,748.065552 934.068481,744.684937 
	C942.271851,740.095032 947.614929,732.206055 951.863403,723.955811 
	C958.612183,710.850037 961.418152,696.822998 959.968628,682.066345 
	C959.049500,672.709595 950.572266,663.060303 941.333069,662.006042 
	C931.782776,660.916443 922.115906,660.849182 911.500183,660.334412 
M236.538177,673.136353 
	C237.454178,669.035645 238.370193,664.934998 239.298676,660.778442 
	C238.080200,660.542969 237.596313,660.368042 237.112274,660.367554 
	C216.621414,660.346985 196.129852,660.424683 175.640320,660.255554 
	C172.130280,660.226624 171.577652,662.122742 171.036469,664.733887 
	C167.001602,684.202271 162.905457,703.657837 158.849518,723.121826 
	C156.872253,732.610474 154.940002,742.108582 152.955780,751.755981 
	C176.233307,751.755981 198.993988,751.755981 221.823364,751.755981 
	C223.152130,746.150940 224.428131,740.768494 225.852997,734.758057 
	C208.741180,734.758057 192.354324,734.758057 175.127121,734.758057 
	C176.515625,728.120483 177.863220,722.156860 178.977875,716.150085 
	C179.543640,713.101135 180.753647,711.788696 184.168732,711.853577 
	C196.325653,712.084961 208.490219,711.997620 220.650223,711.869507 
	C222.038986,711.854858 224.403519,711.084412 224.635406,710.215820 
	C225.878647,705.558716 226.589294,700.759399 227.613373,695.322021 
	C212.252884,695.322021 198.161072,695.322021 183.313431,695.322021 
	C184.556808,690.220459 186.132477,685.804199 186.600235,681.273560 
	C187.090607,676.523682 189.462341,675.931641 193.507065,676.000854 
	C206.164459,676.217529 218.828918,676.155701 231.487747,675.986267 
	C233.091232,675.964783 234.677551,674.660461 236.538177,673.136353 
M699.165894,701.771545 
	C701.997437,688.203918 704.828979,674.636292 707.813599,660.335022 
	C701.946594,660.335022 697.144775,660.474548 692.355835,660.285828 
	C689.181335,660.160645 688.414795,661.319275 687.836548,664.494751 
	C685.976440,674.709229 683.428162,684.798401 681.199524,694.695068 
	C669.043335,694.695068 657.643860,694.695068 646.035217,694.695068 
	C648.339417,683.208069 650.578003,672.047852 652.927612,660.334351 
	C648.370544,660.334351 644.047791,660.671814 639.802795,660.241638 
	C635.340515,659.789429 633.794189,661.577576 632.960144,665.773438 
	C629.116150,685.110840 625.002258,704.395203 620.895081,723.679382 
	C618.916443,732.969482 616.738831,742.217102 614.569763,751.846069 
	C621.670471,751.846069 627.634766,751.846069 633.733215,751.846069 
	C636.643677,738.182983 639.529053,724.637451 642.405518,711.133789 
	C654.376953,711.133789 666.005127,711.133789 677.920227,711.133789 
	C675.070374,724.786194 672.270813,738.197876 669.435547,751.780151 
	C675.620972,751.780151 681.720459,751.780151 688.222046,751.780151 
	C691.841370,735.299622 695.432068,718.949402 699.165894,701.771545 
M111.902779,675.013611 
	C113.697433,674.677551 115.483711,674.107361 117.288094,674.042786 
	C130.471085,673.570618 136.509033,675.122498 137.315598,687.728027 
	C143.074066,687.728027 148.846786,687.728027 154.554230,687.728027 
	C158.266708,677.098694 152.118011,666.569275 145.256195,662.532715 
	C132.028275,654.751221 109.377449,655.840393 95.845757,667.583069 
	C86.123352,676.020020 82.412910,686.073425 85.083626,698.279114 
	C85.818512,701.637634 88.372086,705.864563 91.256721,707.229065 
	C97.757919,710.304626 104.972839,711.889526 111.926880,713.982849 
	C116.025558,715.216675 120.374985,715.813049 124.267090,717.493958 
	C130.943954,720.377563 132.202972,722.973206 129.740540,729.466980 
	C128.819687,731.895447 126.130836,734.144958 123.694962,735.416077 
	C116.135475,739.360840 108.026825,739.942810 100.031898,736.929382 
	C94.176392,734.722473 92.391968,729.626282 92.970131,723.607788 
	C86.728104,723.607788 80.987755,723.607788 75.362350,723.607788 
	C71.562279,733.982239 75.952148,745.846008 87.779442,750.397583 
	C94.344559,752.924133 101.953445,753.102234 109.139618,753.522339 
	C113.867538,753.798706 118.984360,753.476746 123.393074,751.915222 
	C132.957809,748.527344 141.334259,743.014648 146.396591,733.775696 
	C153.122070,721.501404 152.340698,706.607300 137.693375,701.596497 
	C129.281067,698.718567 120.478271,696.906860 111.767044,694.999878 
	C103.560844,693.203430 100.147125,687.389160 104.294937,680.604431 
	C105.727318,678.261353 108.782036,676.910217 111.902779,675.013611 
M746.107971,661.157898 
	C739.871704,671.785950 733.626404,682.408813 727.403687,693.044739 
	C724.985168,697.178406 722.578552,701.320068 720.234802,705.496338 
	C714.875854,715.045105 709.590881,724.635559 704.212952,734.173584 
	C700.919312,740.015076 697.509277,745.790894 693.915405,752.004333 
	C700.081970,752.004333 705.583679,752.181274 711.059692,751.883972 
	C712.486633,751.806580 714.327209,750.566406 715.125732,749.316040 
	C717.695190,745.292786 719.553833,740.789978 722.330078,736.935608 
	C723.621033,735.143433 726.352539,733.477722 728.506165,733.377991 
	C737.151184,732.977722 745.829651,733.366211 754.487244,733.138672 
	C758.044495,733.045166 759.123352,734.289490 759.064453,737.720154 
	C758.983582,742.426819 759.399170,747.142090 759.597717,751.754639 
	C767.170532,751.754639 773.790100,751.754639 780.853760,751.754639 
	C776.546997,721.221497 772.283569,690.995911 767.986145,660.529297 
	C760.535339,660.529297 753.573059,660.529297 746.107971,661.157898 
M283.320831,752.102661 
	C297.183685,745.757202 308.083221,736.578430 313.366302,720.993896 
	C307.741333,720.993896 302.766022,720.741150 297.841705,721.131775 
	C296.132812,721.267395 293.774506,722.609253 293.045380,724.066772 
	C289.996613,730.161255 285.296509,734.021179 279.050964,736.436707 
	C267.441284,740.926758 254.719803,734.261719 254.183640,722.253906 
	C253.392151,704.528564 257.958282,688.390259 273.495544,677.654419 
	C279.563629,673.461609 286.747772,673.889343 293.549683,676.459839 
	C299.843628,678.838379 300.109863,685.047180 301.637085,690.715637 
	C306.245209,690.715637 310.718445,690.723694 315.191589,690.713623 
	C320.654327,690.701416 321.518097,689.843872 320.684021,684.250854 
	C318.921204,672.429749 313.509186,663.868042 301.081757,660.330383 
	C289.242432,656.960144 277.658142,657.995667 267.070374,662.860596 
	C258.643494,666.732605 251.626221,673.144592 246.321686,681.661194 
	C237.973236,695.064941 233.440338,709.211060 234.096649,724.814514 
	C234.679764,738.677673 241.974487,748.929016 253.967850,752.144653 
	C262.870148,754.531555 272.972992,752.440979 283.320831,752.102661 
M584.659912,724.877502 
	C594.309570,724.877502 603.959229,724.877502 614.284668,724.877502 
	C615.206299,719.273315 616.099609,713.841370 617.022461,708.229614 
	C605.026245,708.229614 593.601379,708.229614 582.023865,708.229614 
	C580.665833,713.707275 579.354858,718.995178 577.896545,724.877380 
	C580.147949,724.877380 581.932007,724.877380 584.659912,724.877502 
z"/>
<path fill="#F85C12" opacity="1.000000" stroke="none" 
	d="
M366.886078,464.163940 
	C353.766876,453.913086 340.892914,443.941406 328.111084,433.852997 
	C323.877686,430.511658 319.761658,426.998901 315.808411,423.331238 
	C311.376068,419.219025 310.174927,413.542389 313.043427,408.084381 
	C319.315277,396.150696 324.897644,383.651733 332.708679,372.782959 
	C341.758850,360.190033 352.407471,348.618134 363.286987,337.508667 
	C371.752930,328.863800 381.162537,320.941498 391.024414,313.922943 
	C400.550781,307.143188 411.359436,302.138123 423.064270,300.130371 
	C430.044525,298.933014 437.103271,299.444824 442.703674,304.842407 
	C446.266510,308.276184 450.184326,307.224274 453.867126,305.522461 
	C466.940094,299.481598 479.578461,292.294464 493.062042,287.426605 
	C500.941925,284.581818 501.269592,280.028381 501.097595,273.709778 
	C500.970978,269.056213 501.356110,264.391052 501.349182,259.731293 
	C501.338531,252.589966 505.432404,248.158829 512.561584,247.966965 
	C518.237244,247.814209 523.655884,247.508575 528.129456,243.049713 
	C535.088440,236.113663 538.706238,228.094879 535.833862,218.475510 
	C532.170349,206.206314 526.424133,200.546524 514.489929,198.405930 
	C498.811584,195.593781 486.348969,208.840057 487.554138,224.270126 
	C488.382751,234.879517 483.073669,236.548828 476.480286,233.892075 
	C474.260162,232.997498 472.356506,228.809189 472.101898,225.965637 
	C470.775116,211.148972 476.882172,196.391663 490.548157,187.628571 
	C504.707031,178.549438 523.571716,180.217377 536.409729,190.808411 
	C545.752625,198.516037 551.774719,208.385544 552.345215,221.376877 
	C552.947571,235.095001 549.333862,246.773651 538.559082,255.268677 
	C533.750671,259.059692 527.644165,261.377625 521.850891,263.665466 
	C519.335327,264.658936 518.373840,265.459747 518.611694,268.085327 
	C519.102295,273.501495 517.642822,280.077209 520.243774,284.034271 
	C522.693054,287.760620 529.311035,288.775330 534.126343,290.912445 
	C546.349609,296.337372 558.551819,301.815033 570.881531,306.987457 
	C572.172668,307.529053 574.680115,306.668549 575.911377,305.621460 
	C586.821777,296.343292 598.129883,299.624756 609.684265,304.010864 
	C623.087341,309.098724 634.732361,317.103485 645.431213,326.285522 
	C653.671692,333.357697 660.985901,341.557678 668.348083,349.589752 
	C674.489319,356.289795 680.561401,363.147064 685.823608,370.533447 
	C691.363464,378.309692 695.970215,386.758484 700.846741,394.995056 
	C702.441467,397.688599 703.475342,400.708832 704.986938,403.457977 
	C710.577637,413.625366 708.507874,421.869751 699.181030,428.456757 
	C691.271301,434.042969 683.653015,440.049469 676.010986,446.005035 
	C667.630920,452.535767 659.274841,459.104767 651.097412,465.885162 
	C646.553833,469.652466 641.196045,467.909546 633.985291,460.610870 
	C633.985291,463.113831 633.987000,464.797943 633.984985,466.482025 
	C633.939026,504.971710 633.686646,543.463013 633.997681,581.949829 
	C634.071350,591.058899 629.510803,595.635498 620.413696,595.597046 
	C546.436279,595.284546 472.455933,595.694641 398.476379,595.731262 
	C395.047424,595.732910 391.273743,594.916504 388.284271,593.316162 
	C385.240784,591.686768 384.092804,588.305176 385.407684,584.594299 
	C385.842468,583.367249 386.115601,582.010620 386.116791,580.712952 
	C386.153229,541.063293 386.146515,501.413666 386.146515,461.013916 
	C380.019165,465.470551 374.600830,472.082275 366.886078,464.163940 
M512.106140,352.530945 
	C521.709717,353.151550 530.442688,350.493469 538.531860,345.468323 
	C542.554688,342.969299 546.921631,340.848022 550.451904,337.773712 
	C555.726074,333.180908 560.398926,327.897675 565.674438,322.557007 
	C563.773682,321.517395 562.674377,320.817535 561.498413,320.288116 
	C548.460999,314.419067 535.058228,309.236420 522.484741,302.503998 
	C513.496643,297.691345 505.987122,297.508698 497.236603,302.686676 
	C490.381348,306.743195 482.501587,309.037628 475.187134,312.357574 
	C468.324432,315.472504 461.606201,318.905731 454.335907,322.436157 
	C469.909332,339.700806 486.201385,354.312134 512.106140,352.530945 
z"/>
<path fill="#659639" opacity="1.000000" stroke="none" 
	d="
M946.000000,828.093140 
	C768.530273,828.477417 591.560547,828.854248 414.590851,829.246094 
	C293.613434,829.513977 172.635590,829.688293 51.659420,830.235107 
	C37.371677,830.299683 27.131367,819.389282 26.975035,809.962585 
	C26.773855,797.831787 36.361843,788.009094 51.720886,788.064392 
	C79.382812,788.164001 107.045540,788.093750 134.707809,788.035400 
	C334.508575,787.613831 534.309326,787.182007 734.110107,786.743469 
	C816.256531,786.563171 898.403015,786.390564 980.549194,786.121460 
	C990.330322,786.089417 997.965088,789.494995 1003.165710,797.986450 
	C1006.750916,803.840393 1005.998169,812.581543 1002.013611,818.231262 
	C996.905518,825.474060 989.815125,827.929504 981.493530,827.993652 
	C969.829468,828.083679 958.164551,828.064514 946.000000,828.093140 
z"/>
<path fill="#66973A" opacity="1.000000" stroke="none" 
	d="
M874.772888,681.743530 
	C869.588562,705.290344 864.540527,728.435608 859.450012,751.775757 
	C853.210754,751.775757 847.087097,751.775757 840.411194,751.775757 
	C832.797302,730.791199 825.112671,709.611633 816.903442,686.986389 
	C812.171509,709.250732 807.687439,730.349060 803.144226,751.725525 
	C797.285889,751.725525 791.361511,751.725525 784.879028,751.725525 
	C786.664795,744.180786 788.516541,736.839661 790.130737,729.446655 
	C794.798889,708.065735 799.366089,686.662842 803.992615,665.272827 
	C804.337646,663.677490 804.838745,662.115906 805.322388,660.335876 
	C810.895264,660.335876 816.223816,660.182312 821.532227,660.441956 
	C822.890076,660.508362 824.957764,661.584229 825.386902,662.700745 
	C829.421875,673.199463 833.204407,683.796021 836.994507,694.387756 
	C840.375732,703.836853 843.674377,713.315552 848.213318,722.696167 
	C849.197815,717.063599 850.013062,711.395081 851.200562,705.805603 
	C854.060974,692.342041 857.233398,678.943359 859.975159,665.456604 
	C860.790771,661.444763 862.339294,659.784729 866.579834,660.243225 
	C870.483704,660.665222 874.469177,660.333008 878.498474,660.333008 
	C877.242554,667.684265 876.075867,674.513062 874.772888,681.743530 
z"/>
<path fill="#66973A" opacity="1.000000" stroke="none" 
	d="
M460.467102,744.760559 
	C453.360229,725.705505 446.423920,707.016479 439.032257,687.100464 
	C434.359100,709.192871 429.896637,730.289307 425.371796,751.680542 
	C419.735016,751.680542 414.151825,751.680542 407.683380,751.680542 
	C409.189545,744.187744 410.595306,736.807983 412.164062,729.463074 
	C416.733734,708.067932 421.466095,686.706909 425.887451,665.281433 
	C426.676819,661.456177 428.112915,659.946899 432.072998,660.259399 
	C436.874451,660.638184 442.699799,658.854248 446.251038,661.015259 
	C449.376587,662.917297 450.156464,668.902222 451.665161,673.192017 
	C456.966553,688.265869 462.123962,703.390320 467.373962,718.482422 
	C467.858826,719.876282 468.613068,721.176453 469.736511,723.575745 
	C471.299500,717.313843 472.748077,712.027100 473.916931,706.679138 
	C475.046509,701.511047 475.840179,696.270630 476.866150,691.078674 
	C478.600922,682.299561 480.494537,673.550720 482.129456,664.753479 
	C482.754944,661.388000 484.177765,659.943726 487.796478,660.252380 
	C491.912842,660.603516 496.082214,660.333557 501.205505,660.333557 
	C494.688354,691.085144 488.283264,721.307861 481.778778,751.999573 
	C475.867310,751.999573 470.232697,752.191040 464.618073,751.938477 
	C460.189178,751.739258 461.607788,747.623474 460.467102,744.760559 
z"/>
<path fill="#669639" opacity="1.000000" stroke="none" 
	d="
M356.368469,661.507935 
	C370.839294,655.460083 385.102905,655.179443 398.398834,662.817017 
	C405.864807,667.105713 410.132355,674.914551 410.943756,683.721558 
	C412.657776,702.326660 408.557861,719.283691 396.950104,734.482300 
	C390.911560,742.388855 383.466583,748.659851 374.503204,751.083984 
	C365.482239,753.523682 355.538727,752.792725 345.990356,752.974915 
	C336.230499,753.161011 329.826752,747.029419 325.347076,739.449646 
	C320.394714,731.070068 319.476257,721.510559 321.228424,711.923401 
	C323.837402,697.648071 327.810242,683.797485 338.547607,673.269043 
	C343.535919,668.377808 348.676727,663.241028 356.368469,661.507935 
M382.239807,726.591125 
	C387.510437,718.617249 390.654907,709.919250 391.677307,700.374817 
	C392.912872,688.840820 390.313721,675.342651 376.264526,674.127686 
	C366.302582,673.266174 357.922516,676.339539 351.471588,683.668274 
	C344.352997,691.755493 341.593018,701.960449 340.296906,712.345276 
	C337.795654,732.385925 351.175720,742.193359 368.172455,736.492676 
	C373.587494,734.676453 377.975311,731.334900 382.239807,726.591125 
z"/>
<path fill="#66973A" opacity="1.000000" stroke="none" 
	d="
M499.226868,752.006348 
	C497.107117,752.006348 495.454620,752.006348 493.125305,752.006348 
	C494.401367,746.849609 495.671631,742.127869 496.730347,737.359192 
	C499.749573,723.759705 502.740509,710.153442 505.632172,696.526367 
	C508.173248,684.551453 510.565186,672.544861 513.228333,659.550354 
	C530.882812,660.378845 548.203491,660.525391 565.359558,662.280884 
	C573.804749,663.144958 578.217163,670.559570 581.039062,678.298279 
	C584.406128,687.531860 583.293884,696.887512 580.522522,705.805725 
	C577.853394,714.395081 574.731201,723.154968 570.021423,730.729004 
	C562.085571,743.491089 550.112122,751.212280 534.684204,751.859375 
	C523.039246,752.347778 511.358826,751.988403 499.226868,752.006348 
M545.013000,732.871826 
	C551.588379,727.821533 556.951843,721.826599 558.727112,713.476807 
	C560.372253,705.738892 562.343750,697.956421 562.806335,690.113037 
	C563.263794,682.356445 557.851685,676.780701 550.197144,676.219116 
	C542.939575,675.686646 535.612366,676.104614 528.131165,676.104614 
	C523.986267,695.921753 519.872009,715.592529 515.431274,736.824341 
	C525.852417,735.608643 535.164978,734.522278 545.013000,732.871826 
z"/>
<path fill="#66963A" opacity="1.000000" stroke="none" 
	d="
M912.000122,660.334534 
	C922.115906,660.849182 931.782776,660.916443 941.333069,662.006042 
	C950.572266,663.060303 959.049500,672.709595 959.968628,682.066345 
	C961.418152,696.822998 958.612183,710.850037 951.863403,723.955811 
	C947.614929,732.206055 942.271851,740.095032 934.068481,744.684937 
	C928.026306,748.065552 921.037354,751.067383 914.272400,751.568848 
	C900.199585,752.612061 885.995483,751.884277 871.214661,751.884277 
	C871.829285,749.309021 872.415466,746.999756 872.929565,744.674500 
	C875.864197,731.400574 878.924133,718.152161 881.664246,704.838013 
	C884.370178,691.689941 886.824707,678.488098 889.218567,665.278870 
	C889.899658,661.520569 891.491638,659.958191 895.509949,660.242065 
	C900.815735,660.616882 906.167908,660.334412 912.000122,660.334534 
M932.879028,722.202881 
	C937.342834,712.345215 941.156433,702.419250 941.116333,691.246643 
	C941.082581,681.862976 934.457703,676.635498 927.662659,676.193359 
	C920.559021,675.731140 913.401855,676.090149 905.899170,676.090149 
	C901.739624,695.892944 897.609436,715.555603 893.364807,735.763489 
	C898.993164,735.763489 903.475586,735.677979 907.953674,735.780579 
	C918.557190,736.023376 926.885132,732.046021 932.879028,722.202881 
z"/>
<path fill="#66963A" opacity="1.000000" stroke="none" 
	d="
M236.404999,673.543396 
	C234.677551,674.660461 233.091232,675.964783 231.487747,675.986267 
	C218.828918,676.155701 206.164459,676.217529 193.507065,676.000854 
	C189.462341,675.931641 187.090607,676.523682 186.600235,681.273560 
	C186.132477,685.804199 184.556808,690.220459 183.313431,695.322021 
	C198.161072,695.322021 212.252884,695.322021 227.613373,695.322021 
	C226.589294,700.759399 225.878647,705.558716 224.635406,710.215820 
	C224.403519,711.084412 222.038986,711.854858 220.650223,711.869507 
	C208.490219,711.997620 196.325653,712.084961 184.168732,711.853577 
	C180.753647,711.788696 179.543640,713.101135 178.977875,716.150085 
	C177.863220,722.156860 176.515625,728.120483 175.127121,734.758057 
	C192.354324,734.758057 208.741180,734.758057 225.852997,734.758057 
	C224.428131,740.768494 223.152130,746.150940 221.823364,751.755981 
	C198.993988,751.755981 176.233307,751.755981 152.955780,751.755981 
	C154.940002,742.108582 156.872253,732.610474 158.849518,723.121826 
	C162.905457,703.657837 167.001602,684.202271 171.036469,664.733887 
	C171.577652,662.122742 172.130280,660.226624 175.640320,660.255554 
	C196.129852,660.424683 216.621414,660.346985 237.112274,660.367554 
	C237.596313,660.368042 238.080200,660.542969 239.298676,660.778442 
	C238.370193,664.934998 237.454178,669.035645 236.404999,673.543396 
z"/>
<path fill="#66963A" opacity="1.000000" stroke="none" 
	d="
M699.094360,702.185364 
	C695.432068,718.949402 691.841370,735.299622 688.222046,751.780151 
	C681.720459,751.780151 675.620972,751.780151 669.435547,751.780151 
	C672.270813,738.197876 675.070374,724.786194 677.920227,711.133789 
	C666.005127,711.133789 654.376953,711.133789 642.405518,711.133789 
	C639.529053,724.637451 636.643677,738.182983 633.733215,751.846069 
	C627.634766,751.846069 621.670471,751.846069 614.569763,751.846069 
	C616.738831,742.217102 618.916443,732.969482 620.895081,723.679382 
	C625.002258,704.395203 629.116150,685.110840 632.960144,665.773438 
	C633.794189,661.577576 635.340515,659.789429 639.802795,660.241638 
	C644.047791,660.671814 648.370544,660.334351 652.927612,660.334351 
	C650.578003,672.047852 648.339417,683.208069 646.035217,694.695068 
	C657.643860,694.695068 669.043335,694.695068 681.199524,694.695068 
	C683.428162,684.798401 685.976440,674.709229 687.836548,664.494751 
	C688.414795,661.319275 689.181335,660.160645 692.355835,660.285828 
	C697.144775,660.474548 701.946594,660.335022 707.813599,660.335022 
	C704.828979,674.636292 701.997437,688.203918 699.094360,702.185364 
z"/>
<path fill="#66963A" opacity="1.000000" stroke="none" 
	d="
M111.499237,675.059814 
	C108.782036,676.910217 105.727318,678.261353 104.294937,680.604431 
	C100.147125,687.389160 103.560844,693.203430 111.767044,694.999878 
	C120.478271,696.906860 129.281067,698.718567 137.693375,701.596497 
	C152.340698,706.607300 153.122070,721.501404 146.396591,733.775696 
	C141.334259,743.014648 132.957809,748.527344 123.393074,751.915222 
	C118.984360,753.476746 113.867538,753.798706 109.139618,753.522339 
	C101.953445,753.102234 94.344559,752.924133 87.779442,750.397583 
	C75.952148,745.846008 71.562279,733.982239 75.362350,723.607788 
	C80.987755,723.607788 86.728104,723.607788 92.970131,723.607788 
	C92.391968,729.626282 94.176392,734.722473 100.031898,736.929382 
	C108.026825,739.942810 116.135475,739.360840 123.694962,735.416077 
	C126.130836,734.144958 128.819687,731.895447 129.740540,729.466980 
	C132.202972,722.973206 130.943954,720.377563 124.267090,717.493958 
	C120.374985,715.813049 116.025558,715.216675 111.926880,713.982849 
	C104.972839,711.889526 97.757919,710.304626 91.256721,707.229065 
	C88.372086,705.864563 85.818512,701.637634 85.083626,698.279114 
	C82.412910,686.073425 86.123352,676.020020 95.845757,667.583069 
	C109.377449,655.840393 132.028275,654.751221 145.256195,662.532715 
	C152.118011,666.569275 158.266708,677.098694 154.554230,687.728027 
	C148.846786,687.728027 143.074066,687.728027 137.315598,687.728027 
	C136.509033,675.122498 130.471085,673.570618 117.288094,674.042786 
	C115.483711,674.107361 113.697433,674.677551 111.499237,675.059814 
z"/>
<path fill="#669639" opacity="1.000000" stroke="none" 
	d="
M746.359375,660.843628 
	C753.573059,660.529297 760.535339,660.529297 767.986145,660.529297 
	C772.283569,690.995911 776.546997,721.221497 780.853760,751.754639 
	C773.790100,751.754639 767.170532,751.754639 759.597717,751.754639 
	C759.399170,747.142090 758.983582,742.426819 759.064453,737.720154 
	C759.123352,734.289490 758.044495,733.045166 754.487244,733.138672 
	C745.829651,733.366211 737.151184,732.977722 728.506165,733.377991 
	C726.352539,733.477722 723.621033,735.143433 722.330078,736.935608 
	C719.553833,740.789978 717.695190,745.292786 715.125732,749.316040 
	C714.327209,750.566406 712.486633,751.806580 711.059692,751.883972 
	C705.583679,752.181274 700.081970,752.004333 693.915405,752.004333 
	C697.509277,745.790894 700.919312,740.015076 704.212952,734.173584 
	C709.590881,724.635559 714.875854,715.045105 720.234802,705.496338 
	C722.578552,701.320068 724.985168,697.178406 727.403687,693.044739 
	C733.626404,682.408813 739.871704,671.785950 746.359375,660.843628 
M748.511475,688.078735 
	C744.372498,695.853943 740.244568,703.635071 736.086121,711.399841 
	C735.140137,713.166138 734.088501,714.875793 732.994507,716.768921 
	C741.010315,716.768921 748.423157,716.768921 756.050842,716.768921 
	C754.812683,705.120483 753.607727,693.784180 752.342651,681.882385 
	C751.032166,684.127014 750.032959,685.838623 748.511475,688.078735 
z"/>
<path fill="#66963A" opacity="1.000000" stroke="none" 
	d="
M282.930969,752.223755 
	C272.972992,752.440979 262.870148,754.531555 253.967850,752.144653 
	C241.974487,748.929016 234.679764,738.677673 234.096649,724.814514 
	C233.440338,709.211060 237.973236,695.064941 246.321686,681.661194 
	C251.626221,673.144592 258.643494,666.732605 267.070374,662.860596 
	C277.658142,657.995667 289.242432,656.960144 301.081757,660.330383 
	C313.509186,663.868042 318.921204,672.429749 320.684021,684.250854 
	C321.518097,689.843872 320.654327,690.701416 315.191589,690.713623 
	C310.718445,690.723694 306.245209,690.715637 301.637085,690.715637 
	C300.109863,685.047180 299.843628,678.838379 293.549683,676.459839 
	C286.747772,673.889343 279.563629,673.461609 273.495544,677.654419 
	C257.958282,688.390259 253.392151,704.528564 254.183640,722.253906 
	C254.719803,734.261719 267.441284,740.926758 279.050964,736.436707 
	C285.296509,734.021179 289.996613,730.161255 293.045380,724.066772 
	C293.774506,722.609253 296.132812,721.267395 297.841705,721.131775 
	C302.766022,720.741150 307.741333,720.993896 313.366302,720.993896 
	C308.083221,736.578430 297.183685,745.757202 282.930969,752.223755 
z"/>
<path fill="#67973B" opacity="1.000000" stroke="none" 
	d="
M584.187988,724.877441 
	C581.932007,724.877380 580.147949,724.877380 577.896545,724.877380 
	C579.354858,718.995178 580.665833,713.707275 582.023865,708.229614 
	C593.601379,708.229614 605.026245,708.229614 617.022461,708.229614 
	C616.099609,713.841370 615.206299,719.273315 614.284668,724.877502 
	C603.959229,724.877502 594.309570,724.877502 584.187988,724.877441 
z"/>
<path fill="#FFFDFC" opacity="1.000000" stroke="none" 
	d="
M511.687653,352.458740 
	C486.201385,354.312134 469.909332,339.700806 454.335907,322.436157 
	C461.606201,318.905731 468.324432,315.472504 475.187134,312.357574 
	C482.501587,309.037628 490.381348,306.743195 497.236603,302.686676 
	C505.987122,297.508698 513.496643,297.691345 522.484741,302.503998 
	C535.058228,309.236420 548.460999,314.419067 561.498413,320.288116 
	C562.674377,320.817535 563.773682,321.517395 565.674438,322.557007 
	C560.398926,327.897675 555.726074,333.180908 550.451904,337.773712 
	C546.921631,340.848022 542.554688,342.969299 538.531860,345.468323 
	C530.442688,350.493469 521.709717,353.151550 511.687653,352.458740 
z"/>
<path fill="#FEFEFE" opacity="1.000000" stroke="none" 
	d="
M381.925568,726.780457 
	C377.975311,731.334900 373.587494,734.676453 368.172455,736.492676 
	C351.175720,742.193359 337.795654,732.385925 340.296906,712.345276 
	C341.593018,701.960449 344.352997,691.755493 351.471588,683.668274 
	C357.922516,676.339539 366.302582,673.266174 376.264526,674.127686 
	C390.313721,675.342651 392.912872,688.840820 391.677307,700.374817 
	C390.654907,709.919250 387.510437,718.617249 381.925568,726.780457 
z"/>
<path fill="#FEFEFD" opacity="1.000000" stroke="none" 
	d="
M544.745300,733.153870 
	C535.164978,734.522278 525.852417,735.608643 515.431274,736.824341 
	C519.872009,715.592529 523.986267,695.921753 528.131165,676.104614 
	C535.612366,676.104614 542.939575,675.686646 550.197144,676.219116 
	C557.851685,676.780701 563.263794,682.356445 562.806335,690.113037 
	C562.343750,697.956421 560.372253,705.738892 558.727112,713.476807 
	C556.951843,721.826599 551.588379,727.821533 544.745300,733.153870 
z"/>
<path fill="#FDFEFD" opacity="1.000000" stroke="none" 
	d="
M932.674194,722.516479 
	C926.885132,732.046021 918.557190,736.023376 907.953674,735.780579 
	C903.475586,735.677979 898.993164,735.763489 893.364807,735.763489 
	C897.609436,715.555603 901.739624,695.892944 905.899170,676.090149 
	C913.401855,676.090149 920.559021,675.731140 927.662659,676.193359 
	C934.457703,676.635498 941.082581,681.862976 941.116333,691.246643 
	C941.156433,702.419250 937.342834,712.345215 932.674194,722.516479 
z"/>
<path fill="#FDFDFC" opacity="1.000000" stroke="none" 
	d="
M748.772583,687.814453 
	C750.032959,685.838623 751.032166,684.127014 752.342651,681.882385 
	C753.607727,693.784180 754.812683,705.120483 756.050842,716.768921 
	C748.423157,716.768921 741.010315,716.768921 732.994507,716.768921 
	C734.088501,714.875793 735.140137,713.166138 736.086121,711.399841 
	C740.244568,703.635071 744.372498,695.853943 748.772583,687.814453 
z"/>
</svg>